<svg width="390" height="344" viewBox="0 0 390 344" fill="none" xmlns="http://www.w3.org/2000/svg">
<path d="M270.19 177.145C270.19 205.505 293.181 228.495 321.541 228.495C349.9 228.495 372.891 205.505 372.891 177.146C372.891 148.786 349.901 125.796 321.541 125.796H270.19L270.19 177.145Z" fill="#FF5100"/>
<path d="M-75.5748 43.5751C-95.6283 63.6285 -95.628 96.1417 -75.5746 116.195C-55.5214 136.248 -23.0085 136.249 -2.95529 116.195C17.0979 96.1422 17.0979 63.6295 -2.95531 43.5763L-39.2657 7.26593L-75.5748 43.5751Z" fill="#FF5100"/>
<path d="M350.63 43.5751C330.577 63.6285 330.577 96.1417 350.63 116.195C370.684 136.248 403.197 136.249 423.25 116.195C443.303 96.1422 443.303 63.6295 423.25 43.5763L386.939 7.26593L350.63 43.5751Z" fill="#FF5100"/>
<path d="M1.17948 318.296C15.3594 342.856 46.7648 351.271 71.3252 337.091C95.8853 322.911 104.3 291.506 90.1207 266.946C75.9409 242.386 44.5361 233.971 19.976 248.151L-24.4949 273.826L1.17948 318.296Z" fill="#FF5100"/>
<path d="M190.078 240.204C170.024 260.258 170.024 292.771 190.078 312.824C210.131 332.878 242.644 332.878 262.697 312.825C282.75 292.771 282.75 260.259 262.697 240.205L226.387 203.895L190.078 240.204Z" fill="#FF5100"/>
<path d="M270.112 102.784L270.112 0.0838394L262.213 0.0838393C209.857 0.0838387 167.413 42.527 167.413 94.8833L167.413 102.784L270.112 102.784Z" fill="#FF5100"/>
<path d="M386.824 343.972L386.824 241.272L378.925 241.272C326.569 241.272 284.125 283.715 284.125 336.072L284.125 343.972L386.824 343.972Z" fill="#FF5100"/>
<path d="M70.3652 214.195L70.3652 111.494L62.4659 111.494C10.1095 111.494 -32.3336 153.938 -32.3336 206.294L-32.3336 214.195L70.3652 214.195Z" fill="#FF5100"/>
<path d="M148.503 222.537L237.444 171.187L233.494 164.346C207.316 119.004 149.338 103.469 103.996 129.647L97.1535 133.597L148.503 222.537Z" fill="#FF5100"/>
</svg>
