<svg width="872" height="886" viewBox="0 0 872 886" fill="none" xmlns="http://www.w3.org/2000/svg">
<path d="M701 -13.1371C701 84.5443 780.188 163.731 877.869 163.731C975.549 163.731 1054.74 84.5454 1054.74 -13.1349C1054.74 -110.815 975.55 -190.001 877.87 -190.001H701L701 -13.1371Z" fill="#FF5100"/>
<path d="M425.065 204.061C355.993 273.132 355.994 385.12 425.065 454.191C494.136 523.261 606.122 523.262 675.192 454.191C744.262 385.121 744.262 273.136 675.192 204.065L550.126 78.9994L425.065 204.061Z" fill="#FF5100"/>
<path d="M1102.73 561.474L1102.73 207.738L1075.52 207.738C895.189 207.738 749 353.928 749 534.262L749 561.474L1102.73 561.474Z" fill="#FF5100"/>
<path d="M281.865 143.208L588.209 -33.6594L574.605 -57.2223C484.438 -213.396 284.74 -266.905 128.566 -176.738L104.999 -163.132L281.865 143.208Z" fill="#FF5100"/>
<path d="M631.066 729.537C561.994 798.609 561.995 910.596 631.066 979.667C700.137 1048.74 812.123 1048.74 881.193 979.668C950.263 910.598 950.263 798.612 881.193 729.542L756.127 604.476L631.066 729.537Z" fill="#FF5100"/>
<path d="M353.732 933.474L353.732 579.738L326.524 579.738C146.19 579.738 0.000734897 725.928 0.000732746 906.262L0.000732422 933.474L353.732 933.474Z" fill="#FF5100"/>
</svg>
